<svg xmlns="http://www.w3.org/2000/svg" xmlns:xlink="http://www.w3.org/1999/xlink" viewBox="0 0 107 107"><defs><style>.cls-1{fill:url(#未命名的渐变_44);}.cls-2{fill:url(#未命名的渐变_44-2);}.cls-3{fill:url(#未命名的渐变_44-3);}.cls-4{fill:url(#未命名的渐变_44-4);}</style><linearGradient id="未命名的渐变_44" x1="95.33" y1="90.43" x2="30.88" y2="33.53" gradientUnits="userSpaceOnUse"><stop offset="0" stop-color="#0acffe"/><stop offset="0.99" stop-color="#495aff"/></linearGradient><linearGradient id="未命名的渐变_44-2" x1="27" y1="74.09" x2="82" y2="74.09" gradientTransform="translate(-1)" xlink:href="#未命名的渐变_44"/><linearGradient id="未命名的渐变_44-3" x1="26" y1="33.09" x2="81" y2="33.09" xlink:href="#未命名的渐变_44"/><linearGradient id="未命名的渐变_44-4" x1="162" y1="7.09" x2="217.09" y2="7.09" gradientTransform="translate(-157.54 46.46)" xlink:href="#未命名的渐变_44"/></defs><title>资源 1</title><g id="图层_2" data-name="图层 2"><g id="图层_1-2" data-name="图层 1"><path class="cls-1" d="M93.28,107H13.72A13.72,13.72,0,0,1,0,93.28V13.72A13.72,13.72,0,0,1,13.72,0H93.28A13.72,13.72,0,0,1,107,13.72V93.28A13.72,13.72,0,0,1,93.28,107ZM93,84.17V23.83A8.83,8.83,0,0,0,84.17,15H23.83A8.83,8.83,0,0,0,15,23.83V84.17A8.83,8.83,0,0,0,23.83,93H84.17A8.83,8.83,0,0,0,93,84.17Z"/><rect class="cls-2" x="26" y="67.45" width="55" height="13.28" rx="2" ry="2" transform="translate(107 148.17) rotate(180)"/><rect class="cls-3" x="26" y="26.45" width="55" height="13.28" rx="2" ry="2"/><rect class="cls-4" x="4.46" y="46.78" width="55.09" height="13.52" rx="2" ry="2" transform="translate(-21.54 85.54) rotate(-90)"/></g></g></svg>